<svg xmlns="http://www.w3.org/2000/svg" width="27" height="34" viewBox="0 0 154.384 195.325">
  <title>Ресурс 1</title>
  <path d="M78,.587,77.19.5.5,8.543V149.111l76.692,45.632,76.692-45.632V8.543Zm65.855,142.82L77.192,183.07l-66.66-39.663V85.791L76.906,125.3l.111,7.159-45.534-27.1-.067,6.951,45.715,27.475.113,7.349-45.7-27.185-.066,6.95,45.714,27.474,46.152-27.615v-6.982l-.057.034V97.1l20.565-12.28Zm-.054-66.06L125.562,88.092l-8.419,4.96L76.994,69.168l-.066,6.95,34.317,20.408-.3.179-.739.435-4.876,2.873L76.994,83.159l-.066,6.951,22.362,13.3-5.276,3.529-.128.077L76.994,97.063l-.066,6.95,11.084,6.527-11.291,6.78L10.677,78.06,76.816,38.305v.008Zm.054-6.991L76.832,30.847v-.009l-.008,0-.008,0v.009L10.532,70.309V17.578L77.193,10.59l66.659,6.988Z" fill="#9b0d0d" stroke="#231f20" stroke-miterlimit="10"/>
</svg>
